<svg width="180" height="160" viewBox="0 0 180 160" fill="none" xmlns="http://www.w3.org/2000/svg">
<path fill-rule="evenodd" clip-rule="evenodd" d="M89.7327 70.1079C83.9 70.1079 78.4263 72.3152 74.2088 76.4651C70.0811 80.5267 67.8378 85.9127 67.9275 91.4753V91.5636C67.9275 97.3027 70.1708 102.689 74.2986 106.75C78.4263 110.812 83.9 113.019 89.7327 113.019C101.757 113.019 111.448 103.395 111.538 91.5636C111.538 85.8244 109.295 80.4384 105.167 76.3768C101.039 72.3152 95.5653 70.1079 89.7327 70.1079ZM140.071 70.7262C135.585 70.7262 131.995 67.1944 131.995 62.7797C131.995 58.3649 135.585 54.7448 140.071 54.7448C144.558 54.7448 148.237 58.3649 148.237 62.7797C148.237 67.1944 144.558 70.7262 140.071 70.7262ZM114.594 116.11C108.223 122.379 99.4291 126.264 89.7379 126.264C80.3159 126.264 71.5221 122.643 64.7921 116.11C58.1519 109.487 54.4728 100.835 54.4728 91.5636C54.3831 82.3809 58.0621 73.728 64.7024 67.1059C71.4324 60.4837 80.3159 56.8636 89.7379 56.8636C99.1599 56.8636 108.043 60.4837 114.684 67.0176C121.324 73.6397 125.003 82.3809 125.003 91.5636C124.913 101.188 120.965 109.841 114.594 116.11ZM140.343 29.9337C139.535 29.9337 138.907 29.4923 138.548 28.8742L137.651 26.9317C135.228 21.8989 132.446 16.0714 130.741 12.7162C126.614 4.76965 119.525 0.354897 110.82 0.266602H68.5561C59.852 0.354897 52.8528 4.76965 48.7251 12.7162C46.9304 16.248 43.8795 22.6053 41.367 27.8147L40.8286 28.8742C40.5594 29.5806 39.8415 29.9337 39.1237 29.9337C17.498 29.9337 0 47.2396 0 68.4304V120.878C0 142.068 17.498 159.374 39.1237 159.374H140.343C161.879 159.374 179.466 142.068 179.466 120.878V68.4304C179.466 47.2396 161.879 29.9337 140.343 29.9337Z" fill="white"/>
</svg>
