<svg width="22" height="23" viewBox="0 0 22 23" fill="none" xmlns="http://www.w3.org/2000/svg">
<g clip-path="url(#clip0_10_278)">
<path d="M21.9884 11.7151C21.9884 10.7728 21.9135 10.0852 21.7516 9.37207H11.2191V13.6251H17.4014C17.2768 14.6821 16.6037 16.2738 15.108 17.3434L15.087 17.4858L18.4172 20.1214L18.6479 20.1449C20.7668 18.1457 21.9884 15.2042 21.9884 11.7151Z" fill="#4285F4"/>
<path d="M11.2191 22.9209C14.2479 22.9209 16.7906 21.9021 18.6479 20.1449L15.108 17.3434C14.1607 18.0183 12.8893 18.4895 11.2191 18.4895C8.25261 18.4895 5.73481 16.4903 4.83729 13.7271L4.70573 13.7385L1.24298 16.4763L1.19769 16.6049C3.04241 20.3486 6.8316 22.9209 11.2191 22.9209Z" fill="#34A853"/>
<path d="M4.83731 13.7272C4.60049 13.0141 4.46343 12.25 4.46343 11.4605C4.46343 10.671 4.60049 9.90698 4.82485 9.1939L4.81858 9.04203L1.31243 6.26025L1.19772 6.316C0.437419 7.86955 0.00115967 9.61413 0.00115967 11.4605C0.00115967 13.3069 0.437419 15.0514 1.19772 16.605L4.83731 13.7272Z" fill="#FBBC05"/>
<path d="M11.2191 4.43136C13.3256 4.43136 14.7465 5.36093 15.5567 6.13775L18.7227 2.97973C16.7783 1.13332 14.2479 0 11.2191 0C6.8316 0 3.04241 2.57223 1.19769 6.31596L4.82483 9.19386C5.73481 6.43061 8.2526 4.43136 11.2191 4.43136Z" fill="#EB4335"/>
</g>
<defs>
<clipPath id="clip0_10_278">
<rect width="22" height="23" fill="white"/>
</clipPath>
</defs>
</svg>
